<?xml version="1.0" encoding="utf-8"?>
<!-- Generator: Adobe Illustrator 23.0.2, SVG Export Plug-In . SVG Version: 6.00 Build 0)  -->
<svg version="1.1" id="Layer_1" xmlns="http://www.w3.org/2000/svg" xmlns:xlink="http://www.w3.org/1999/xlink" x="0px" y="0px"
	 viewBox="0 0 100 128" style="enable-background:new 0 0 100 128;" xml:space="preserve">
<style type="text/css">
	.st0{fill:#E3530D;}
</style>
<path class="st0" d="M33.4,125.4c-3.8,0-9.8-1.7-9.8-5.5V88.8h6.6l0,26.2c0,4.2,0.1,4.5,0.6,4.5c0.5,0,6.9-0.1,6.9-0.3V84.2h6.6
	v35.9C44.3,123.8,37,125.4,33.4,125.4z"/>
<path class="st0" d="M92.2,63.1H78.1V0h14.1c4.6,0,7.8,1.3,7.8,7.7V32c0,2.1-0.9,3.8-2.9,4.4c1.7,0.7,2.9,2.6,2.9,4.8v14.1
	C100,61.3,97.5,63.1,92.2,63.1z M85.1,5.2h-0.3v29.3h0.4c0.6,0,8.2-0.5,8.2-1.2V6.3C93.4,5.7,85.8,5.2,85.1,5.2z M85.2,40.4h-0.4
	v17.3h0.3c0.7,0,8.3-0.4,8.3-1v-15C93.4,40.9,85.8,40.4,85.2,40.4z"/>
<path class="st0" d="M17.6,125.4H11V75.7H0v-6.9l29.8,0.1l0,6.8H17.6V125.4z"/>
<path class="st0" d="M87.6,125.4H81V68.9h19v5.6l-12.4,2.7l0,15.5l9,0.1v5.6l-9-0.1V125.4z"/>
<polygon class="st0" points="8.3,55.7 6.6,6.6 26.6,6.6 26.6,0 0,0 0,5.5 0,6.6 0,56.5 0,57.2 0,63.1 33.5,63.1 33.5,55.6 "/>
<path class="st0" d="M20,50.7c-3.8,0-7.2-1.1-7.2-5.1V16.7h6.6l0,28c0,0.2,0.1,0.5,0.6,0.5c0.5,0,6.8-0.8,6.8-1.1V9.9h6.6V45
	C33.5,48.9,23.6,50.7,20,50.7z"/>
<polygon class="st0" points="72.7,55.8 66.7,55.8 66.7,70.7 44.8,56 38.8,56 38.8,78.6 44.8,78.6 44.8,64.1 66.7,77.9 72.7,77.9 "/>
<path class="st0" d="M67.4,114c3.8-0.2,4.8-0.4,6.2-0.7c2.6-0.8,3-4.4,3-6V89c0-4.4-2.1-6.4-6.8-6.4l-20.6-0.1v43h6.4l1.2-11
	c0,0,2.6-0.1,5.8-0.3c1.3,3.4,5.5,13.8,9.7,13.8c5,0,6-0.1,6-0.1S69,117.4,67.4,114z M55.5,86.8l13.8,0.1c0.6,0,0.8,0.4,0.8,0.9v21
	c0,0.3-0.2,0.6-0.6,0.6l-12.8-0.7L55.5,86.8z"/>
<path class="st0" d="M60.4,35.9c4.3-0.3,6.1-0.4,7-0.8c2.6-1.1,3.4-5,3.4-6.8V7.4c0-5-2.4-7.3-7.8-7.3L39.5,0v50.1h7.4l1.3-13.6
	c0,0,3-0.1,6.6-0.3c1.5,3.9,6.3,15.7,11,15.7c5.7,0,6.8-0.2,6.8-0.2S62.4,39.8,60.4,35.9z M46.9,4.8l15.8,0.1c0.7,0,0.9,0.4,0.9,1
	v24c0,0.4-0.2,0.7-0.7,0.7l-14.6-0.8L46.9,4.8z"/>
</svg>
